<?xml version="1.0" encoding="UTF-8" standalone="no"?>
<!-- Created with Inkscape (http://www.inkscape.org/) -->

<svg
   version="1.1"
   id="svg1"
   width="658.35333"
   height="716.02399"
   viewBox="0 0 658.35333 716.02399"
   sodipodi:docname="AdobeStock_305364265.ai"
   xmlns:inkscape="http://www.inkscape.org/namespaces/inkscape"
   xmlns:sodipodi="http://sodipodi.sourceforge.net/DTD/sodipodi-0.dtd"
   xmlns="http://www.w3.org/2000/svg"
   xmlns:svg="http://www.w3.org/2000/svg">
  <defs
     id="defs1">
    <clipPath
       clipPathUnits="userSpaceOnUse"
       id="clipPath28">
      <path
         d="M 0,2003.431 H 6784.906 V 0 H 0 Z"
         transform="translate(-5901.3166,-1120.1689)"
         id="path28" />
    </clipPath>
  </defs>
  <sodipodi:namedview
     id="namedview1"
     pagecolor="#ffffff"
     bordercolor="#000000"
     borderopacity="0.25"
     inkscape:showpageshadow="2"
     inkscape:pageopacity="0.0"
     inkscape:pagecheckerboard="0"
     inkscape:deskcolor="#d1d1d1" />
  <g
     id="g1"
     inkscape:groupmode="layer"
     inkscape:label="assa"
     transform="translate(-1231.3492,-539.22971)">
    <path
       id="path27"
       d="m 0,0 c -6.062,-11.332 -24.512,-9.867 -24.512,-9.867 -17.359,1.363 -26.148,3.039 -28.144,19.855 -0.34,2.844 0.867,7.766 5.433,10.735 5.141,3.355 13.051,6.656 20.922,6.218 13.207,-0.742 22.082,-7.086 26.27,-15.304 C 1.961,7.723 1.977,3.699 0,0 m -37.949,-78.199 c 0.82,-5.156 -0.93,-8.446 -2.543,-10.293 -4.492,-5.168 -12.621,-5.164 -13.535,-5.141 -0.317,-0.019 -0.797,-0.015 -1.289,0.028 -18.149,1.429 -35.649,42.019 -39.012,51.992 -3.688,10.937 -12.32,36.562 6.297,45.066 3.965,1.817 7.89,2.586 11.652,2.289 12.191,-0.961 18.324,-12.504 18.582,-12.992 0.406,-0.687 11.856,-20.582 19.848,-70.949 m -46.043,-112.1 c -13.813,-11.078 -25.852,-15.32 -35.563,-14.555 -12.601,0.985 -19.121,11.118 -22.929,18.649 -7.348,14.555 -15.114,34.562 -10.344,47.273 1.41,3.758 5.887,8.368 14.215,10.008 16.406,3.242 48.652,14.147 61.718,11.588 14.875,-2.918 14.348,-55.76 -7.097,-72.963 m -76.719,84.174 -9.16,19.668 c -0.219,0.449 -5.906,12.324 -1.078,23.047 2.914,6.461 8.906,10.988 17.808,13.453 l 2.77,0.762 0.832,-2.754 c 0.121,-0.399 12.293,-40.25 28.051,-52.649 l 3.144,-2.461 -3.293,-2.269 c -0.508,-0.356 -12.629,-8.61 -23.929,-7.723 -6.829,0.535 -12.063,4.313 -15.145,10.926 m 25.496,72.266 c 3.641,7.425 10.617,12.531 20.735,15.16 l 2.843,0.734 0.742,-2.836 c 0.145,-0.562 14.817,-55.754 38.747,-75.398 l 4.046,-3.324 -4.937,-1.727 c -0.555,-0.191 -13.633,-4.715 -26.574,-3.699 -10.575,0.828 -18.024,5.051 -22.157,12.535 -10.031,18.215 -12.867,28.465 -13.312,30.238 -0.844,2.086 -6.109,16.137 -0.133,28.317 m 317.231,-76.364 c -6.383,4.844 -9.571,8.289 -9.571,10.336 0,-2.812 7.461,7.778 22.391,31.77 14.93,23.98 22.391,44.906 22.391,62.769 0,22.453 -4.977,44.403 -14.922,65.836 -10.469,22.711 -24.5,40.059 -42.11,52.059 -37,25.004 -87.648,37.508 -151.953,37.508 h -262.199 c -6.891,0 -10.082,-2.934 -9.566,-8.801 l 0.382,-5.359 c 2.039,-41.856 3.442,-73.368 4.207,-94.543 2.805,-81.911 4.211,-137.415 4.211,-166.502 0,-27.821 -1.531,-69.602 -4.593,-125.352 -3.059,-55.758 -4.59,-97.547 -4.59,-125.359 0,-7.407 4.207,-11.102 12.629,-11.102 13.015,0 32.789,0.508 59.328,1.531 24.738,0.953 43.633,1.453 56.84,1.524 0.773,57.461 2.738,122.586 7.652,132.039 7.867,15.148 38.094,28.656 63.562,35.515 14.891,4.016 17.399,7.836 23.54,12.102 -17.356,23.656 -19.68,43.805 -18.028,57.484 2.016,16.672 10.949,31.416 23.914,39.452 8.254,5.117 32.258,11.964 40.555,14.25 -2.938,13.39 0.172,27.41 2.062,34 -0.992,0.05 -1.968,0.113 -2.921,0.191 -18.61,1.457 -32.079,7.277 -40.036,17.301 -9.254,11.652 -7.421,24.57 -7.343,25.117 l 0.418,2.754 76.265,-7.293 0.75,-1.336 c 29.758,-52.805 26.5,-103.959 -9.679,-152.045 -8.883,-11.82 -18.625,-21.75 -27.016,-29.375 3.609,-31.766 8.086,-115.25 11.32,-182.461 27.524,-0.5 49.438,-0.75 65.703,-0.75 42.61,0 79.227,16.969 109.852,50.906 29.594,32.922 44.398,71.063 44.398,114.453 0,50.266 -15.945,87.391 -47.843,111.381"
       style="fill:#6eb257;fill-opacity:1;fill-rule:nonzero;stroke:none"
       transform="matrix(1.3333333,0,0,-1.3333333,1583.2239,739.30304)"
       clip-path="url(#clipPath28)" />
  </g>
</svg>
